<svg xmlns="http://www.w3.org/2000/svg" xmlns:xlink="http://www.w3.org/1999/xlink" xmlns:lucid="lucid" width="787.48" height="771"><g transform="translate(0 -9)" lucid:page-tab-id="0_0"><path d="M0 0h1870.4v1323.2H0z" fill="#fff"/><path d="M200 213.62h160v32.76H200z" fill="none"/><use xlink:href="#a" transform="matrix(1,0,0,1,200,213.61638940824966) translate(10.41811342592591 20.018229166666668)"/><use xlink:href="#b" transform="matrix(1,0,0,1,200,213.61638940824966) translate(117.48191550925927 20.018229166666668)"/><use xlink:href="#c" transform="matrix(1,0,0,1,200,213.61638940824966) translate(128.1004050925926 20.018229166666668)"/><path d="M20 80h160v338.33H20z" stroke="#000" stroke-width="2" fill="#fff"/><use xlink:href="#d" transform="matrix(1,0,0,1,25,85) translate(51.55 168.1)"/><use xlink:href="#e" transform="matrix(1,0,0,1,25,85) translate(93.45 168.1)"/><path d="M120 100h60v260h-60z" fill="#e5e5e5"/><path d="M125.63 100h3.75m3.75 0h3.75m3.75 0h3.75m3.75 0h3.75m3.75 0h3.75m3.75 0h3.75m3.75 0h3.75m3.75 0H180v1.97m0 3.94v3.95m0 3.94v3.93m0 3.94v3.94m0 3.95v3.93m0 3.94v3.94m0 3.94v3.94m0 3.94v3.94m0 3.94V165m0 3.94v3.94m0 3.94v3.94m0 3.94v3.94m0 3.94v3.94m0 3.93v3.94m0 3.93v3.94m0 3.94v3.95m0 3.94v3.93m0 3.94v3.94m0 3.95v3.94m0 3.93v3.94m0 3.94v3.95m0 3.93v3.94m0 3.94v3.94m0 3.94v3.94m0 3.94v3.94m0 3.94v3.94m0 3.94v3.94m0 3.94v3.94m0 3.94v3.94m0 3.94v3.93m0 3.94v3.93m0 3.94v3.94m0 3.95v3.94m0 3.93V360h-1.87m-3.75 0h-3.75m-3.75 0h-3.75m-3.75 0h-3.75m-3.75 0h-3.75m-3.75 0h-3.75m-3.75 0h-3.75m-3.75 0h-3.75m-3.75 0H120v-1.97m0-3.94v-3.95m0-3.94v-3.93m0-3.94v-3.94m0-3.95v-3.93m0-3.94v-3.94m0-3.94v-3.94m0-3.94v-3.94m0-3.94V295m0-3.94v-3.94m0-3.94v-3.94m0-3.94v-3.94m0-3.94v-3.94m0-3.93v-3.94m0-3.93v-3.94m0-3.94v-3.95m0-3.94v-3.93m0-3.94v-3.94m0-3.95v-3.94m0-3.93v-3.94m0-3.94v-3.95m0-3.93v-3.94m0-3.94v-3.94m0-3.94v-3.94m0-3.94v-3.94m0-3.94v-3.94m0-3.94v-3.94m0-3.94v-3.94m0-3.94v-3.94m0-3.94v-3.93m0-3.94v-3.93m0-3.94v-3.94m0-3.95v-3.94m0-3.93V100h1.88" stroke="#000" fill="none"/><path d="M120 140h60v40h-60z" stroke="#000" stroke-opacity="0" stroke-width="2" fill="#fff" fill-opacity="0"/><use xlink:href="#f" transform="matrix(1,0,0,1,125,145) translate(8 18.6)"/><path d="M120 180h60v40h-60z" stroke="#000" stroke-opacity="0" stroke-width="2" fill="#fff" fill-opacity="0"/><use xlink:href="#g" transform="matrix(1,0,0,1,125,185) translate(15 18.6)"/><path d="M120 320h60v40h-60z" stroke="#000" stroke-opacity="0" stroke-width="2" fill="#fff" fill-opacity="0"/><use xlink:href="#f" transform="matrix(1,0,0,1,125,325) translate(8 18.6)"/><path d="M120 278.75h60v40h-60z" stroke="#000" stroke-opacity="0" stroke-width="2" fill="#fff" fill-opacity="0"/><use xlink:href="#h" transform="matrix(1,0,0,1,125,283.75) translate(15.5 18.6)"/><path d="M120 240h60v40h-60z" stroke="#000" stroke-opacity="0" stroke-width="2" fill="#fff" fill-opacity="0"/><use xlink:href="#i" transform="matrix(1,0,0,1,125,245) translate(15 18.6)"/><path d="M120 100h60v40h-60z" stroke="#000" stroke-opacity="0" stroke-width="2" fill="#fff" fill-opacity="0"/><use xlink:href="#h" transform="matrix(1,0,0,1,125,105) translate(15.5 18.6)"/><path d="M36 377.5h128v40.83H36z" fill="#e5e5e5"/><path d="M42 377.5h4m4 0h4m4 0h4m4 0h4m4 0h4m4 0h4m4 0h4m4 0h4m4 0h4m4 0h4m4 0h4m4 0h4m4 0h4m4 0h4m4 0h4m4 0h2v2.04m0 4.08v4.1m0 4.07v4.07m0 4.1v4.07m0 4.08v4.1m0 4.07v2.03h-2m-4 0h-4m-4 0h-4m-4 0h-4m-4 0h-4m-4 0h-4m-4 0h-4m-4 0h-4m-4 0h-4m-4 0h-4m-4 0h-4m-4 0h-4m-4 0h-4m-4 0h-4m-4 0h-4m-4 0h-4m-4 0h-2v-2.04m0-4.1v-4.07m0-4.1v-4.07m0-4.1v-4.07m0-4.1v-4.08m0-4.08v-2.04h2" stroke="#000" fill="none"/><path d="M36 380h60v38.33H36z" stroke="#000" stroke-opacity="0" stroke-width="2" fill="#fff" fill-opacity="0"/><use xlink:href="#f" transform="matrix(1,0,0,1,41,385) translate(8 18.1)"/><path d="M104 380h60v37.5h-60z" stroke="#000" stroke-opacity="0" stroke-width="2" fill="#fff" fill-opacity="0"/><use xlink:href="#j" transform="matrix(1,0,0,1,109,385) translate(15 17.6)"/><path d="M320 380h280v380H320z" stroke="#000" stroke-width="2" fill="#fff"/><use xlink:href="#k" transform="matrix(1,0,0,1,325,385) translate(103.61111111111111 189.44444444444443)"/><path d="M460 418.33h120V500H460z" stroke="#000" fill="#e5e5e5"/><use xlink:href="#l" transform="matrix(1,0,0,1,465,423.3333333333333) translate(26.575 64.8)"/><path d="M470 418.33h30V440h-30z" stroke="#000" stroke-opacity="0" stroke-width="2" fill="#fff" fill-opacity="0"/><use xlink:href="#m" transform="matrix(1,0,0,1,475,423.3333333333333) translate(-2.5925925925925934 10.666666666666668)"/><use xlink:href="#n" transform="matrix(1,0,0,1,475,423.3333333333333) translate(-9.94444444444445 26.666666666666668)"/><path d="M505 418.33h30V440h-30z" stroke="#000" stroke-opacity="0" stroke-width="2" fill="#fff" fill-opacity="0"/><use xlink:href="#o" transform="matrix(1,0,0,1,510,423.3333333333333) translate(0.5185185185185173 10.666666666666668)"/><use xlink:href="#p" transform="matrix(1,0,0,1,510,423.3333333333333) translate(-4.018518518518521 26.666666666666668)"/><path d="M542 418.33h30V440h-30z" stroke="#000" stroke-opacity="0" stroke-width="2" fill="#fff" fill-opacity="0"/><use xlink:href="#q" transform="matrix(1,0,0,1,547,423.3333333333333) translate(-4.055555555555555 10.666666666666668)"/><use xlink:href="#r" transform="matrix(1,0,0,1,547,423.3333333333333) translate(-11.425925925925931 26.666666666666668)"/><path d="M181.5 257.55h368.05c1.66 0 3 1.34 3 3v156.28" stroke="#000" stroke-width="2" fill="none"/><path d="M181.53 258.55h-1.03v-2h1.03zM553.55 417.83h-2v-1.02h2z"/><path d="M181.5 298.22H517c1.66 0 3 1.34 3 3v115.6" stroke="#000" stroke-width="2" fill="none"/><path d="M181.53 299.22h-1.03v-2h1.03zM521 417.83h-2v-1.02h2z"/><path d="M181.5 338.88h301.36c1.66 0 3 1.34 3 3v74.95" stroke="#000" stroke-width="2" fill="none"/><path d="M181.53 339.88h-1.03v-2h1.03zM486.86 417.83h-2v-1.02h2zM642 583.3l-1.1 2.7-2.7 1.1H602v-2h35.8l1.56-.63.64-1.55V383.18h2zm-1.1-424.04l1.1 2.68v199.64h-2V162.34l-.64-1.55-1.56-.66h-36.3v-2h36.7z"/><path d="M601.53 160.14h-1.03v-2h1.03zM602.03 587.1H601v-2h1.03z"/><use xlink:href="#s" transform="matrix(1,0,0,1,624.525,361.57893968631817) translate(0 14.4)"/><path d="M761 759h-2v-70.62h2zm-1.1-638.9l1.1 2.7v543.98h-2V123.2l-.64-1.56-1.56-.64h-75.82v.04l-.7.28H601.5v-2h78.02v-.04l.7-.28h76.98z"/><path d="M601.53 121.32h-1.03v-2h1.03zM761 760h-2v-1.03h2z"/><use xlink:href="#s" transform="matrix(1,0,0,1,743.525,666.7826007990164) translate(0 14.4)"/><path d="M300 60h80v60h-80z" stroke="#000" fill="#e5e5e5"/><use xlink:href="#t" transform="matrix(1,0,0,1,305,65) translate(0.04999999999999716 17.799999999999997)"/><use xlink:href="#u" transform="matrix(1,0,0,1,305,65) translate(10.574999999999996 39.4)"/><path d="M469.9 20.1l1.1 2.7v94l.64 1.56 1.56.64H499v2h-26.2l-2.7-1.1-1.1-2.7v-94l-.64-1.56-1.56-.64H205.2l-1.56.64-.64 1.56v94l-1.1 2.7-2.7 1.1H181v-2h17.8l1.56-.64.64-1.56v-94l1.1-2.7 2.7-1.1h262.4z"/><path d="M500 121h-1.03v-2H500zM181.03 121H180v-2h1.03zM360.78 197.2l-1.1 2.7-2.7 1.1H181v-2h175.6l1.54-.64.64-1.56v-42.4h2zm0-64.4h-2v-11.3h2z"/><path d="M360.78 121.53h-2v-1.03h2zM181.03 201H180v-2h1.03z"/><use xlink:href="#v" transform="matrix(1,0,0,1,353.7847757420725,132.81157014914658) translate(0 14.4)"/><path d="M321.48 157.2l-1.1 2.7-2.7 1.1H181v-2h136.28l1.56-.64.64-1.56v-2.4h2zm0-24.4h-2v-11.3h2z"/><path d="M321.48 121.53h-2v-1.03h2zM181.03 161H180v-2h1.03z"/><use xlink:href="#w" transform="matrix(1,0,0,1,314.4805565433587,132.81157014914658) translate(0 14.4)"/><path d="M500 100h100v80H500z" stroke="#000" fill="#e5e5e5"/><use xlink:href="#x" transform="matrix(1,0,0,1,505,105) translate(26.525 38.6)"/><path d="M500 100h20v40h-20z" stroke="#000" stroke-opacity="0" fill-opacity="0"/><use xlink:href="#y" transform="matrix(1,0,0,1,505,105) translate(0 18.6)"/><path d="M500 133.4h20v53.2h-20z" stroke="#000" stroke-opacity="0" fill-opacity="0"/><use xlink:href="#z" transform="matrix(1,0,0,1,505,138.4) translate(0 25.6)"/><path d="M580 140h20v40h-20z" stroke="#000" stroke-opacity="0" fill-opacity="0"/><use xlink:href="#A" transform="matrix(1,0,0,1,585,145) translate(0 18.6)"/><path d="M580 100h20v40h-20z" stroke="#000" stroke-opacity="0" fill-opacity="0"/><use xlink:href="#B" transform="matrix(1,0,0,1,585,105) translate(0 18.6)"/><path d="M419.9 40.1l1.1 2.7v114l.64 1.56 1.56.64H499v2h-76.2l-2.7-1.1-1.1-2.7v-114l-.64-1.56-1.56-.64H262.7l-1.56.64-.64 1.56v11h-2V42.8l1.1-2.7 2.7-1.1h154.9zM260.5 86.8l.64 1.56 1.56.64h35.8v2h-36.2l-2.7-1.1-1.1-2.7V75.8h2z"/><path d="M299.5 91h-1.03v-2h1.03zM500 161h-1.03v-2H500z"/><use xlink:href="#C" transform="matrix(1,0,0,1,253.025,54.203131751718985) translate(0 14.4)"/><path d="M240 180h60v40h-60z" stroke="#000" fill="#e5e5e5"/><use xlink:href="#D" transform="matrix(1,0,0,1,245,185) translate(4.024999999999999 19.1)"/><path d="M719.9 703.66l1.1 2.7V759h-2v-52.25l-.64-1.56-1.56-.65h-23.32v-2h23.72zm-117.9.9v-2h48.53v2z"/><path d="M602.03 704.55H601v-2h1.03zM721 760h-2v-1.03h2z"/><use xlink:href="#E" transform="matrix(1,0,0,1,650.5330405404206,692.7463258785942) translate(0 14.4)"/><path d="M739.9 679.76l1.1 2.7V759h-2v-76.15l-.64-1.56-1.56-.65h-35.33v-2h35.73zm-137.9.9v-2h41.62v2z"/><path d="M602.03 680.65H601v-2h1.03zM741 760h-2v-1.03h2z"/><use xlink:href="#F" transform="matrix(1,0,0,1,643.6223728361996,668.8495386044805) translate(0 14.4)"/><path d="M66.66 657.8l.36.85.84.35h4.1l1.97.82.82 1.98v36.7h-2v-36.3l-.35-.85-.85-.35h-4.1l-1.97-.82-.82-1.98v-6.5h2zm0-27.7h-2V420.33h2z"/><path d="M66.66 420.36h-2v-1.03h2zM74.75 699.5h-2v-1.03h2z"/><use xlink:href="#G" transform="matrix(1,0,0,1,20.738901254869056,630.0969843417691) translate(0 14.4)"/><path d="M150 520h80v60h-80z" stroke="#000" fill="#e5e5e5"/><use xlink:href="#H" transform="matrix(1,0,0,1,154.99999999999997,525) translate(-1 17.799999999999997)"/><use xlink:href="#u" transform="matrix(1,0,0,1,154.99999999999997,525) translate(10.574999999999996 39.4)"/><path d="M105.84 488.32l.82 1.98v57.5l.36.85.84.35h20.4v2h-20.8l-1.98-.82-.82-1.98v-57.5l-.35-.85-.84-.35h-36.8v-2h37.2zM148.5 549v2h-8.24v-2z"/><path d="M66.7 489.5h-1.04v-2h1.03zM149.5 551h-1.03v-2h1.03z"/><use xlink:href="#w" transform="matrix(1,0,0,1,128.26070170914807,539.2) translate(0 14.4)"/><path d="M190.3 518.5h-2v-6.86h2zm-54.4-70.7l.36.85.85.35h50.4l1.98.82.82 1.98v38.24h-2V452.2l-.35-.85-.85-.35h-50.4l-1.97-.82-.82-1.98v-27.87h2z"/><path d="M135.9 420.36h-2v-1.03h2zM190.3 519.5h-2v-1.03h2z"/><use xlink:href="#v" transform="matrix(1,0,0,1,183.3034795940317,490.03648320759214) translate(0 14.4)"/><path d="M160 435.83h60v40h-60z" stroke="#000" fill="#e5e5e5"/><use xlink:href="#I" transform="matrix(1,0,0,1,164.99999999999997,440.83333333333326) translate(3.5249999999999986 19.1)"/><path d="M50 700h100v60H50z" stroke="#000" fill="#e5e5e5"/><use xlink:href="#J" transform="matrix(1,0,0,1,55,705) translate(9.524999999999999 42.8)"/><use xlink:href="#K" transform="matrix(1,0,0,1,55,705) translate(51.475 42.8)"/><path d="M64.3 700h21.4v21.67H64.3z" stroke="#000" stroke-opacity="0" stroke-width="2" fill="#fff" fill-opacity="0"/><use xlink:href="#L" transform="matrix(1,0,0,1,69.28571428571428,705) translate(-6.5925925925925934 10.666666666666668)"/><path d="M114.3 700h21.4v21.67h-21.4z" stroke="#000" stroke-opacity="0" stroke-width="2" fill="#fff" fill-opacity="0"/><use xlink:href="#M" transform="matrix(1,0,0,1,119.28571428571428,705) translate(-3.4814814814814827 10.666666666666668)"/><path d="M339.68 679.82l.82 1.98v35.17l.35.85.85.35h16.8v2h-17.2l-1.98-.82-.82-1.98V682.2l-.35-.85-.85-.35H185.32v-2H337.7zM131.42 681h-2.72l-.85.35-.35.85v16.3h-2v-16.7l.82-1.98 1.98-.82h3.12z"/><path d="M127.5 699.5h-2v-1.03h2zM359.5 720.17h-1.03v-2h1.03z"/><use xlink:href="#N" transform="matrix(1,0,0,1,131.42408158099147,669.2) translate(0 14.4)"/><path d="M360 700h200v38.33H360z" stroke="#000" fill="#e5e5e5"/><use xlink:href="#O" transform="matrix(1,0,0,1,365,705) translate(62.525 18.1)"/><use xlink:href="#P" transform="matrix(1,0,0,1,365,705) translate(96.525 18.1)"/><path d="M360 708.33h30.7V730H360z" stroke="#000" stroke-opacity="0" stroke-width="2" fill="#fff" fill-opacity="0"/><use xlink:href="#Q" transform="matrix(1,0,0,1,365,713.3333333333333) translate(-1.7037037037037042 10.666666666666668)"/><path d="M523.57 708.33H560V730h-36.43z" stroke="#000" stroke-opacity="0" stroke-width="2" fill="#fff" fill-opacity="0"/><use xlink:href="#R" transform="matrix(1,0,0,1,528.5714285714286,713.3333333333333) translate(-2.7777777777777786 10.666666666666668)"/><path d="M386.44 549.82l.82 1.98v116l.35.85.86.35h151.76l2 .82.8 1.98v26.7h-2v-26.3l-.35-.85-.84-.35H388.06l-1.98-.82-.82-1.98v-116l-.35-.85-.84-.35H252.5v-2h131.96zM231.5 551v-2h8.04v2z"/><path d="M231.53 551h-1.03v-2h1.03zM543.03 699.5h-2v-1.03h2z"/><g><use xlink:href="#C" transform="matrix(1,0,0,1,239.53616328101688,539.2) translate(0 14.4)"/></g><path d="M273.2 572.95l-.8 1.98-2 .82h-8.2l-.85.35-.35.85v21.55h-2v-21.95l.82-1.98 1.98-.82h8.2l.86-.35.35-.85V551h2z"/><path d="M273.2 551.03h-2V550h2zM261 599.5h-2v-1.03h2z"/><path d="M220 600h80v40h-80z" stroke="#000" fill="#e5e5e5"/><g><use xlink:href="#S" transform="matrix(1,0,0,1,224.99999999999997,605) translate(3.5249999999999986 19.1)"/></g><path d="M260 641.5v16.75c0 1.1-.9 2-2 2h-7.67c-1.1 0-2 .9-2 2V679" stroke="#000" stroke-width="2" fill="none"/><path d="M261 641.53h-2v-1.03h2z"/><path d="M248.33 678.97V680" stroke="#000" stroke-width="2" fill="none"/><defs><path fill="#191919" d="M319-664C304-226 428 158 661 357l-38 113c-89-49-172-133-254-248C142-97 71-578 194-1025c67-244 240-513 429-618l38 122c-201 153-330 502-342 857" id="T"/><path fill="#191919" d="M902-489h202v151H902V0H716v-338H53v-109l652-1009h197v967zm-639 0h453v-714l-22 40" id="U"/><path fill="#191919" d="M258 11c-71 0-114-43-114-108 0-67 42-112 114-112s116 45 116 112c-1 65-45 108-116 108" id="V"/><path fill="#191919" d="M884-462c0-185-111-323-291-323-113 0-183 39-239 93l-148-38 74-726h746v171H437l-44 397c71-42 152-63 243-63 273-2 433 205 433 487 0 293-170 484-461 484-260 0-436-159-454-403h175c20 156 111 252 279 252 182 0 276-140 276-331" id="W"/><path fill="#191919" d="M525-543H37v-151h488v151" id="X"/><path fill="#191919" d="M574-1476c351 0 454 237 460 615v240c0 217-37 378-111 483S733 20 576 20c-346 0-454-246-461-616v-247c0-214 37-373 111-477s190-156 348-156zm275 905c0-337 59-752-275-753-95 0-160 38-207 107-80 118-66 409-67 625 0 157 22 273 68 348s115 113 208 113c91 0 160-35 204-106s69-182 69-334" id="Y"/><path fill="#191919" d="M1061-1352L458 0H264l601-1304H77v-152h984v104" id="Z"/><path fill="#191919" d="M38 357C331 141 457-487 337-984c-53-219-157-429-299-546l39-113c190 106 362 378 431 621 75 268 76 597 0 868C440 88 266 365 77 470" id="aa"/><path fill="#191919" d="M177 125H18l608-1581h158" id="ab"/><path fill="#191919" d="M569-1476c255 0 440 146 439 390 0 143-91 314-274 512L344-151h731V0H121v-133l504-560c75-85 125-155 155-207 105-184 6-424-211-424-183 0-293 113-291 297H93c-3-270 199-449 476-449" id="ac"/><path fill="#191919" d="M729 0H543v-1233l-373 137v-168l530-199h29V0" id="ad"/><g id="a"><use transform="matrix(0.006510416666666667,0,0,0.006510416666666667,0,0)" xlink:href="#T"/><use transform="matrix(0.006510416666666667,0,0,0.006510416666666667,4.557291666666667,0)" xlink:href="#U"/><use transform="matrix(0.006510416666666667,0,0,0.006510416666666667,12.044270833333334,0)" xlink:href="#V"/><use transform="matrix(0.006510416666666667,0,0,0.006510416666666667,15.553385416666668,0)" xlink:href="#W"/><use transform="matrix(0.006510416666666667,0,0,0.006510416666666667,23.040364583333336,0)" xlink:href="#X"/><use transform="matrix(0.006510416666666667,0,0,0.006510416666666667,26.71875,0)" xlink:href="#Y"/><use transform="matrix(0.006510416666666667,0,0,0.006510416666666667,34.20572916666667,0)" xlink:href="#V"/><use transform="matrix(0.006510416666666667,0,0,0.006510416666666667,37.71484375000001,0)" xlink:href="#Z"/><use transform="matrix(0.006510416666666667,0,0,0.006510416666666667,45.20182291666667,0)" xlink:href="#aa"/><use transform="matrix(0.006510416666666667,0,0,0.006510416666666667,49.837239583333336,0)" xlink:href="#ab"/><use transform="matrix(0.006510416666666667,0,0,0.006510416666666667,55.33203125,0)" xlink:href="#Y"/><use transform="matrix(0.006510416666666667,0,0,0.006510416666666667,62.81901041666667,0)" xlink:href="#V"/><use transform="matrix(0.006510416666666667,0,0,0.006510416666666667,66.328125,0)" xlink:href="#Y"/><use transform="matrix(0.006510416666666667,0,0,0.006510416666666667,73.81510416666667,0)" xlink:href="#Y"/><use transform="matrix(0.006510416666666667,0,0,0.006510416666666667,81.30208333333334,0)" xlink:href="#Y"/><use transform="matrix(0.006510416666666667,0,0,0.006510416666666667,88.78906250000001,0)" xlink:href="#ac"/><use transform="matrix(0.006510416666666667,0,0,0.006510416666666667,96.27604166666669,0)" xlink:href="#ad"/></g><path fill="#191919" d="M986-814H152v-161h834v161zm0 415H152v-160h834v160" id="ae"/><use transform="matrix(0.006510416666666667,0,0,0.006510416666666667,0,0)" xlink:href="#ae" id="b"/><path d="M101-251c82-7 93 87 43 132L82-64C71-53 59-42 53-27h129V0H18c2-99 128-94 128-182 0-28-16-43-45-43s-46 15-49 41l-32-3c6-41 34-60 81-64" id="af"/><path d="M101-251c68 0 85 55 85 127S166 4 100 4C33 4 14-52 14-124c0-73 17-127 87-127zm-1 229c47 0 54-49 54-102s-4-102-53-102c-51 0-55 48-55 102 0 53 5 102 54 102" id="ag"/><path d="M143 0L79-87 56-68V0H24v-261h32v163l83-92h37l-77 82L181 0h-38" id="ah"/><g id="c"><use transform="matrix(0.03703703703703704,0,0,0.03703703703703704,0,0)" xlink:href="#af"/><use transform="matrix(0.03703703703703704,0,0,0.03703703703703704,7.407407407407408,0)" xlink:href="#ag"/><use transform="matrix(0.03703703703703704,0,0,0.03703703703703704,14.814814814814817,0)" xlink:href="#ah"/></g><path d="M233-177c-1 41-23 64-60 70L243 0h-38l-65-103H63V0H30v-248c88 3 205-21 203 71zM63-129c60-2 137 13 137-47 0-61-80-42-137-45v92" id="ai"/><path d="M115-194c55 1 70 41 70 98S169 2 115 4C84 4 66-9 55-30l1 105H24l-1-265h31l2 30c10-21 28-34 59-34zm-8 174c40 0 45-34 45-75s-6-73-45-74c-42 0-51 32-51 76 0 43 10 73 51 73" id="aj"/><path d="M24-231v-30h32v30H24zM24 0v-190h32V0H24" id="ak"/><g id="d"><use transform="matrix(0.05,0,0,0.05,0,0)" xlink:href="#ai"/><use transform="matrix(0.05,0,0,0.05,12.950000000000001,0)" xlink:href="#aj"/><use transform="matrix(0.05,0,0,0.05,22.950000000000003,0)" xlink:href="#ak"/></g><path d="M33 0v-38h34V0H33" id="al"/><use transform="matrix(0.05,0,0,0.05,0,0)" xlink:href="#al" id="e"/><path d="M143 4C61 4 22-44 18-125c-5-107 100-154 193-111 17 8 29 25 37 43l-32 9c-13-25-37-40-76-40-61 0-88 39-88 99 0 61 29 100 91 101 35 0 62-11 79-27v-45h-74v-28h105v86C228-13 192 4 143 4" id="am"/><path d="M117-194c89-4 53 116 60 194h-32v-121c0-31-8-49-39-48C34-167 62-67 57 0H25l-1-190h30c1 10-1 24 2 32 11-22 29-35 61-36" id="an"/><path d="M85-194c31 0 48 13 60 33l-1-100h32l1 261h-30c-2-10 0-23-3-31C134-8 116 4 85 4 32 4 16-35 15-94c0-66 23-100 70-100zm9 24c-40 0-46 34-46 75 0 40 6 74 45 74 42 0 51-32 51-76 0-42-9-74-50-73" id="ao"/><g id="f"><use transform="matrix(0.05,0,0,0.05,0,0)" xlink:href="#am"/><use transform="matrix(0.05,0,0,0.05,14,0)" xlink:href="#an"/><use transform="matrix(0.05,0,0,0.05,24,0)" xlink:href="#ao"/></g><path d="M126-127c33 6 58 20 58 59 0 88-139 92-164 29-3-8-5-16-6-25l32-3c6 27 21 44 54 44 32 0 52-15 52-46 0-38-36-46-79-43v-28c39 1 72-4 72-42 0-27-17-43-46-43-28 0-47 15-49 41l-32-3c6-42 35-63 81-64 48-1 79 21 79 65 0 36-21 52-52 59" id="ap"/><g id="g"><use transform="matrix(0.05,0,0,0.05,0,0)" xlink:href="#af"/><use transform="matrix(0.05,0,0,0.05,10,0)" xlink:href="#ap"/></g><path d="M54-142c48-35 137-8 131 61C196 18 31 33 14-55l32-4c7 23 22 37 52 37 35-1 51-22 54-58 4-55-73-65-99-34H22l8-134h141v27H59" id="aq"/><path d="M108 0H70L1-190h34L89-25l56-165h34" id="ar"/><g id="h"><use transform="matrix(0.05,0,0,0.05,0,0)" xlink:href="#aq"/><use transform="matrix(0.05,0,0,0.05,10,0)" xlink:href="#ar"/></g><path d="M155-56V0h-30v-56H8v-25l114-167h33v167h35v25h-35zm-30-156c-27 46-58 90-88 131h88v-131" id="as"/><g id="i"><use transform="matrix(0.05,0,0,0.05,0,0)" xlink:href="#af"/><use transform="matrix(0.05,0,0,0.05,10,0)" xlink:href="#as"/></g><path d="M27 0v-27h64v-190l-56 39v-29l58-41h29v221h61V0H27" id="at"/><path d="M64 0c3-98 48-159 88-221H18v-27h164v26C143-157 98-101 97 0H64" id="au"/><g id="j"><use transform="matrix(0.05,0,0,0.05,0,0)" xlink:href="#at"/><use transform="matrix(0.05,0,0,0.05,10,0)" xlink:href="#au"/></g><path d="M63-220v92h138v28H63V0H30v-248h175v28H63" id="av"/><path d="M114-163C36-179 61-72 57 0H25l-1-190h30c1 12-1 29 2 39 6-27 23-49 58-41v29" id="aw"/><path d="M177-190C167-65 218 103 67 71c-23-6-38-20-44-43l32-5c15 47 100 32 89-28v-30C133-14 115 1 83 1 29 1 15-40 15-95c0-56 16-97 71-98 29-1 48 16 59 35 1-10 0-23 2-32h30zM94-22c36 0 50-32 50-73 0-42-14-75-50-75-39 0-46 34-46 75s6 73 46 73" id="ax"/><path d="M100-194c63 0 86 42 84 106H49c0 40 14 67 53 68 26 1 43-12 49-29l28 8c-11 28-37 45-77 45C44 4 14-33 15-96c1-61 26-98 85-98zm52 81c6-60-76-77-97-28-3 7-6 17-6 28h103" id="ay"/><g id="k"><use transform="matrix(0.06172839506172839,0,0,0.06172839506172839,0,0)" xlink:href="#av"/><use transform="matrix(0.06172839506172839,0,0,0.06172839506172839,13.518518518518517,0)" xlink:href="#aw"/><use transform="matrix(0.06172839506172839,0,0,0.06172839506172839,20.864197530864196,0)" xlink:href="#ak"/><use transform="matrix(0.06172839506172839,0,0,0.06172839506172839,25.74074074074074,0)" xlink:href="#ao"/><use transform="matrix(0.06172839506172839,0,0,0.06172839506172839,38.08641975308642,0)" xlink:href="#ax"/><use transform="matrix(0.06172839506172839,0,0,0.06172839506172839,50.432098765432094,0)" xlink:href="#ay"/></g><path d="M30-248c118-7 216 8 213 122C240-48 200 0 122 0H30v-248zM63-27c89 8 146-16 146-99s-60-101-146-95v194" id="az"/><path d="M197 0v-115H63V0H30v-248h33v105h134v-105h34V0h-34" id="aA"/><path d="M127-220V0H93v-220H8v-28h204v28h-85" id="aB"/><g id="l"><use transform="matrix(0.05,0,0,0.05,0,0)" xlink:href="#az"/><use transform="matrix(0.05,0,0,0.05,12.950000000000001,0)" xlink:href="#aA"/><use transform="matrix(0.05,0,0,0.05,25.900000000000002,0)" xlink:href="#aB"/><use transform="matrix(0.05,0,0,0.05,36.85,0)" xlink:href="#af"/><use transform="matrix(0.05,0,0,0.05,46.85,0)" xlink:href="#af"/></g><g id="m"><use transform="matrix(0.03703703703703704,0,0,0.03703703703703704,0,0)" xlink:href="#am"/><use transform="matrix(0.03703703703703704,0,0,0.03703703703703704,10.370370370370372,0)" xlink:href="#an"/><use transform="matrix(0.03703703703703704,0,0,0.03703703703703704,17.77777777777778,0)" xlink:href="#ao"/></g><path d="M87 75C49 33 22-17 22-94c0-76 28-126 65-167h31c-38 41-64 92-64 168S80 34 118 75H87" id="aC"/><path d="M115-194c53 0 69 39 70 98 0 66-23 100-70 100C84 3 66-7 56-30L54 0H23l1-261h32v101c10-23 28-34 59-34zm-8 174c40 0 45-34 45-75 0-40-5-75-45-74-42 0-51 32-51 76 0 43 10 73 51 73" id="aD"/><path d="M24 0v-261h32V0H24" id="aE"/><path d="M141-36C126-15 110 5 73 4 37 3 15-17 15-53c-1-64 63-63 125-63 3-35-9-54-41-54-24 1-41 7-42 31l-33-3c5-37 33-52 76-52 45 0 72 20 72 64v82c-1 20 7 32 28 27v20c-31 9-61-2-59-35zM48-53c0 20 12 33 32 33 41-3 63-29 60-74-43 2-92-5-92 41" id="aF"/><path d="M96-169c-40 0-48 33-48 73s9 75 48 75c24 0 41-14 43-38l32 2c-6 37-31 61-74 61-59 0-76-41-82-99-10-93 101-131 147-64 4 7 5 14 7 22l-32 3c-4-21-16-35-41-35" id="aG"/><path d="M33-261c38 41 65 92 65 168S71 34 33 75H2C39 34 66-17 66-93S39-220 2-261h31" id="aH"/><g id="n"><use transform="matrix(0.03703703703703704,0,0,0.03703703703703704,0,0)" xlink:href="#aC"/><use transform="matrix(0.03703703703703704,0,0,0.03703703703703704,4.407407407407408,0)" xlink:href="#aD"/><use transform="matrix(0.03703703703703704,0,0,0.03703703703703704,11.814814814814817,0)" xlink:href="#aE"/><use transform="matrix(0.03703703703703704,0,0,0.03703703703703704,14.740740740740744,0)" xlink:href="#aF"/><use transform="matrix(0.03703703703703704,0,0,0.03703703703703704,22.148148148148152,0)" xlink:href="#aG"/><use transform="matrix(0.03703703703703704,0,0,0.03703703703703704,28.81481481481482,0)" xlink:href="#ah"/><use transform="matrix(0.03703703703703704,0,0,0.03703703703703704,35.48148148148149,0)" xlink:href="#aH"/></g><path d="M137 0h-34L2-248h35l83 218 83-218h36" id="aI"/><g id="o"><use transform="matrix(0.03703703703703704,0,0,0.03703703703703704,0,0)" xlink:href="#aI"/><use transform="matrix(0.03703703703703704,0,0,0.03703703703703704,8.62962962962963,0)" xlink:href="#ak"/><use transform="matrix(0.03703703703703704,0,0,0.03703703703703704,11.555555555555557,0)" xlink:href="#an"/></g><g id="p"><use transform="matrix(0.03703703703703704,0,0,0.03703703703703704,0,0)" xlink:href="#aC"/><use transform="matrix(0.03703703703703704,0,0,0.03703703703703704,4.407407407407408,0)" xlink:href="#aw"/><use transform="matrix(0.03703703703703704,0,0,0.03703703703703704,8.814814814814817,0)" xlink:href="#ay"/><use transform="matrix(0.03703703703703704,0,0,0.03703703703703704,16.222222222222225,0)" xlink:href="#ao"/><use transform="matrix(0.03703703703703704,0,0,0.03703703703703704,23.629629629629633,0)" xlink:href="#aH"/></g><path d="M59-47c-2 24 18 29 38 22v24C64 9 27 4 27-40v-127H5v-23h24l9-43h21v43h35v23H59v120" id="aJ"/><g id="q"><use transform="matrix(0.03703703703703704,0,0,0.03703703703703704,0,0)" xlink:href="#az"/><use transform="matrix(0.03703703703703704,0,0,0.03703703703703704,9.592592592592593,0)" xlink:href="#aF"/><use transform="matrix(0.03703703703703704,0,0,0.03703703703703704,17,0)" xlink:href="#aJ"/><use transform="matrix(0.03703703703703704,0,0,0.03703703703703704,20.703703703703702,0)" xlink:href="#aF"/></g><g id="r"><use transform="matrix(0.03703703703703704,0,0,0.03703703703703704,0,0)" xlink:href="#aC"/><use transform="matrix(0.03703703703703704,0,0,0.03703703703703704,4.407407407407408,0)" xlink:href="#ax"/><use transform="matrix(0.03703703703703704,0,0,0.03703703703703704,11.814814814814817,0)" xlink:href="#aw"/><use transform="matrix(0.03703703703703704,0,0,0.03703703703703704,16.222222222222225,0)" xlink:href="#ay"/><use transform="matrix(0.03703703703703704,0,0,0.03703703703703704,23.629629629629633,0)" xlink:href="#ay"/><use transform="matrix(0.03703703703703704,0,0,0.03703703703703704,31.03703703703704,0)" xlink:href="#an"/><use transform="matrix(0.03703703703703704,0,0,0.03703703703703704,38.44444444444445,0)" xlink:href="#aH"/></g><path d="M30 0v-248h33v221h125V0H30" id="aK"/><g id="s"><use transform="matrix(0.05,0,0,0.05,0,0)" xlink:href="#aK"/><use transform="matrix(0.05,0,0,0.05,10,0)" xlink:href="#ak"/><use transform="matrix(0.05,0,0,0.05,13.949999999999998,0)" xlink:href="#ar"/><use transform="matrix(0.05,0,0,0.05,22.95,0)" xlink:href="#ay"/></g><path d="M160-131c35 5 61 23 61 61C221 17 115-2 30 0v-248c76 3 177-17 177 60 0 33-19 50-47 57zm-97-11c50-1 110 9 110-42 0-47-63-36-110-37v79zm0 115c55-2 124 14 124-45 0-56-70-42-124-44v89" id="aL"/><path d="M212-179c-10-28-35-45-73-45-59 0-87 40-87 99 0 60 29 101 89 101 43 0 62-24 78-52l27 14C228-24 195 4 139 4 59 4 22-46 18-125c-6-104 99-153 187-111 19 9 31 26 39 46" id="aM"/><path d="M240 0l2-218c-23 76-54 145-80 218h-23L58-218 59 0H30v-248h44l77 211c21-75 51-140 76-211h43V0h-30" id="aN"/><path d="M134-131c28 9 52 24 51 62-1 50-34 73-85 73S17-19 16-69c0-36 21-54 49-61-75-25-45-126 34-121 46 3 78 18 79 63 0 33-17 51-44 57zm-34-11c31 1 46-15 46-44 0-28-17-43-47-42-29 0-46 13-45 42 1 28 16 44 46 44zm1 122c35 0 51-18 51-52 0-30-18-46-53-46-33 0-51 17-51 47 0 34 19 51 53 51" id="aO"/><g id="t"><use transform="matrix(0.05,0,0,0.05,0,0)" xlink:href="#aL"/><use transform="matrix(0.05,0,0,0.05,12,0)" xlink:href="#aM"/><use transform="matrix(0.05,0,0,0.05,24.950000000000003,0)" xlink:href="#aN"/><use transform="matrix(0.05,0,0,0.05,39.900000000000006,0)" xlink:href="#aq"/><use transform="matrix(0.05,0,0,0.05,49.900000000000006,0)" xlink:href="#as"/><use transform="matrix(0.05,0,0,0.05,59.900000000000006,0)" xlink:href="#aO"/></g><path d="M30 0v-248h187v28H63v79h144v27H63v87h162V0H30" id="aP"/><g id="u"><use transform="matrix(0.05,0,0,0.05,0,0)" xlink:href="#aC"/><use transform="matrix(0.05,0,0,0.05,5.95,0)" xlink:href="#aM"/><use transform="matrix(0.05,0,0,0.05,18.900000000000002,0)" xlink:href="#aL"/><use transform="matrix(0.05,0,0,0.05,30.900000000000002,0)" xlink:href="#aP"/><use transform="matrix(0.05,0,0,0.05,42.900000000000006,0)" xlink:href="#aH"/></g><use transform="matrix(0.05,0,0,0.05,0,0)" xlink:href="#aL" id="v"/><use transform="matrix(0.05,0,0,0.05,0,0)" xlink:href="#aP" id="w"/><path d="M185-189c-5-48-123-54-124 2 14 75 158 14 163 119 3 78-121 87-175 55-17-10-28-26-33-46l33-7c5 56 141 63 141-1 0-78-155-14-162-118-5-82 145-84 179-34 5 7 8 16 11 25" id="aQ"/><g id="x"><use transform="matrix(0.05,0,0,0.05,0,0)" xlink:href="#aQ"/><use transform="matrix(0.05,0,0,0.05,12,0)" xlink:href="#aQ"/><use transform="matrix(0.05,0,0,0.05,24,0)" xlink:href="#ai"/></g><use transform="matrix(0.05,0,0,0.05,0,0)" xlink:href="#ap" id="y"/><use transform="matrix(0.05,0,0,0.05,0,0)" xlink:href="#as" id="z"/><use transform="matrix(0.05,0,0,0.05,0,0)" xlink:href="#af" id="A"/><use transform="matrix(0.05,0,0,0.05,0,0)" xlink:href="#at" id="B"/><use transform="matrix(0.05,0,0,0.05,0,0)" xlink:href="#aM" id="C"/><g id="D"><use transform="matrix(0.05,0,0,0.05,0,0)" xlink:href="#af"/><use transform="matrix(0.05,0,0,0.05,10,0)" xlink:href="#ag"/><use transform="matrix(0.05,0,0,0.05,20,0)" xlink:href="#ah"/><use transform="matrix(0.05,0,0,0.05,29,0)" xlink:href="#ai"/></g><path d="M106-169C34-169 62-67 57 0H25v-261h32l-1 103c12-21 28-36 61-36 89 0 53 116 60 194h-32v-121c2-32-8-49-39-48" id="aR"/><g id="E"><use transform="matrix(0.05,0,0,0.05,0,0)" xlink:href="#aP"/><use transform="matrix(0.05,0,0,0.05,12,0)" xlink:href="#aF"/><use transform="matrix(0.05,0,0,0.05,22,0)" xlink:href="#aw"/><use transform="matrix(0.05,0,0,0.05,27.950000000000003,0)" xlink:href="#aJ"/><use transform="matrix(0.05,0,0,0.05,32.95,0)" xlink:href="#aR"/></g><path d="M190 0L58-211 59 0H30v-248h39L202-35l-2-213h31V0h-41" id="aS"/><path d="M84 4C-5 8 30-112 23-190h32v120c0 31 7 50 39 49 72-2 45-101 50-169h31l1 190h-30c-1-10 1-25-2-33-11 22-28 36-60 37" id="aT"/><g id="F"><use transform="matrix(0.05,0,0,0.05,0,0)" xlink:href="#aS"/><use transform="matrix(0.05,0,0,0.05,12.950000000000001,0)" xlink:href="#ay"/><use transform="matrix(0.05,0,0,0.05,22.950000000000003,0)" xlink:href="#aT"/><use transform="matrix(0.05,0,0,0.05,32.95,0)" xlink:href="#aJ"/><use transform="matrix(0.05,0,0,0.05,37.95,0)" xlink:href="#aw"/><use transform="matrix(0.05,0,0,0.05,43.900000000000006,0)" xlink:href="#aF"/><use transform="matrix(0.05,0,0,0.05,53.900000000000006,0)" xlink:href="#aE"/></g><path d="M100-194c62-1 85 37 85 99 1 63-27 99-86 99S16-35 15-95c0-66 28-99 85-99zM99-20c44 1 53-31 53-75 0-43-8-75-51-75s-53 32-53 75 10 74 51 75" id="aU"/><path d="M16-82v-28h88v28H16" id="aV"/><path d="M135-143c-3-34-86-38-87 0 15 53 115 12 119 90S17 21 10-45l28-5c4 36 97 45 98 0-10-56-113-15-118-90-4-57 82-63 122-42 12 7 21 19 24 35" id="aW"/><g id="G"><use transform="matrix(0.05,0,0,0.05,0,0)" xlink:href="#an"/><use transform="matrix(0.05,0,0,0.05,10,0)" xlink:href="#aU"/><use transform="matrix(0.05,0,0,0.05,20,0)" xlink:href="#an"/><use transform="matrix(0.05,0,0,0.05,30,0)" xlink:href="#aV"/><use transform="matrix(0.05,0,0,0.05,35.95,0)" xlink:href="#aW"/><use transform="matrix(0.05,0,0,0.05,44.95,0)" xlink:href="#aJ"/><use transform="matrix(0.05,0,0,0.05,49.95,0)" xlink:href="#aw"/><use transform="matrix(0.05,0,0,0.05,55.900000000000006,0)" xlink:href="#ak"/><use transform="matrix(0.05,0,0,0.05,59.85,0)" xlink:href="#aj"/><use transform="matrix(0.05,0,0,0.05,69.85000000000001,0)" xlink:href="#ay"/><use transform="matrix(0.05,0,0,0.05,79.85000000000001,0)" xlink:href="#ao"/></g><path d="M30-248c87 1 191-15 191 75 0 78-77 80-158 76V0H30v-248zm33 125c57 0 124 11 124-50 0-59-68-47-124-48v98" id="aX"/><g id="H"><use transform="matrix(0.05,0,0,0.05,0,0)" xlink:href="#aX"/><use transform="matrix(0.05,0,0,0.05,12,0)" xlink:href="#af"/><use transform="matrix(0.05,0,0,0.05,22,0)" xlink:href="#an"/><use transform="matrix(0.05,0,0,0.05,32,0)" xlink:href="#af"/><use transform="matrix(0.05,0,0,0.05,42,0)" xlink:href="#af"/><use transform="matrix(0.05,0,0,0.05,52,0)" xlink:href="#af"/><use transform="matrix(0.05,0,0,0.05,62,0)" xlink:href="#af"/></g><g id="I"><use transform="matrix(0.05,0,0,0.05,0,0)" xlink:href="#as"/><use transform="matrix(0.05,0,0,0.05,10,0)" xlink:href="#au"/><use transform="matrix(0.05,0,0,0.05,20,0)" xlink:href="#ag"/><use transform="matrix(0.05,0,0,0.05,30,0)" xlink:href="#ai"/></g><path d="M232-93c-1 65-40 97-104 97C67 4 28-28 28-90v-158h33c8 89-33 224 67 224 102 0 64-133 71-224h33v155" id="aY"/><g id="J"><use transform="matrix(0.05,0,0,0.05,0,0)" xlink:href="#aX"/><use transform="matrix(0.05,0,0,0.05,12,0)" xlink:href="#aQ"/><use transform="matrix(0.05,0,0,0.05,24,0)" xlink:href="#aY"/></g><g id="K"><use transform="matrix(0.05,0,0,0.05,0,0)" xlink:href="#at"/><use transform="matrix(0.05,0,0,0.05,10,0)" xlink:href="#af"/><use transform="matrix(0.05,0,0,0.05,20,0)" xlink:href="#ar"/></g><g id="L"><use transform="matrix(0.03703703703703704,0,0,0.03703703703703704,0,0)" xlink:href="#am"/><use transform="matrix(0.03703703703703704,0,0,0.03703703703703704,10.370370370370372,0)" xlink:href="#an"/><use transform="matrix(0.03703703703703704,0,0,0.03703703703703704,17.77777777777778,0)" xlink:href="#ao"/></g><g id="M"><use transform="matrix(0.03703703703703704,0,0,0.03703703703703704,0,0)" xlink:href="#aI"/><use transform="matrix(0.03703703703703704,0,0,0.03703703703703704,8.62962962962963,0)" xlink:href="#ak"/><use transform="matrix(0.03703703703703704,0,0,0.03703703703703704,11.555555555555557,0)" xlink:href="#an"/></g><g id="N"><use transform="matrix(0.05,0,0,0.05,0,0)" xlink:href="#aW"/><use transform="matrix(0.05,0,0,0.05,9,0)" xlink:href="#aJ"/><use transform="matrix(0.05,0,0,0.05,14,0)" xlink:href="#aw"/><use transform="matrix(0.05,0,0,0.05,19.95,0)" xlink:href="#ak"/><use transform="matrix(0.05,0,0,0.05,23.9,0)" xlink:href="#aj"/><use transform="matrix(0.05,0,0,0.05,33.9,0)" xlink:href="#ay"/><use transform="matrix(0.05,0,0,0.05,43.9,0)" xlink:href="#ao"/></g><g id="O"><use transform="matrix(0.05,0,0,0.05,0,0)" xlink:href="#at"/><use transform="matrix(0.05,0,0,0.05,10,0)" xlink:href="#af"/><use transform="matrix(0.05,0,0,0.05,20,0)" xlink:href="#ar"/></g><g id="P"><use transform="matrix(0.05,0,0,0.05,0,0)" xlink:href="#av"/><use transform="matrix(0.05,0,0,0.05,10.950000000000001,0)" xlink:href="#aF"/><use transform="matrix(0.05,0,0,0.05,20.950000000000003,0)" xlink:href="#an"/></g><g id="Q"><use transform="matrix(0.03703703703703704,0,0,0.03703703703703704,0,0)" xlink:href="#ai"/><use transform="matrix(0.03703703703703704,0,0,0.03703703703703704,9.592592592592593,0)" xlink:href="#ay"/><use transform="matrix(0.03703703703703704,0,0,0.03703703703703704,17,0)" xlink:href="#ao"/></g><g id="R"><use transform="matrix(0.03703703703703704,0,0,0.03703703703703704,0,0)" xlink:href="#aL"/><use transform="matrix(0.03703703703703704,0,0,0.03703703703703704,8.88888888888889,0)" xlink:href="#aE"/><use transform="matrix(0.03703703703703704,0,0,0.03703703703703704,11.814814814814817,0)" xlink:href="#aF"/><use transform="matrix(0.03703703703703704,0,0,0.03703703703703704,19.222222222222225,0)" xlink:href="#aG"/><use transform="matrix(0.03703703703703704,0,0,0.03703703703703704,25.888888888888893,0)" xlink:href="#ah"/></g><g id="S"><use transform="matrix(0.05,0,0,0.05,0,0)" xlink:href="#at"/><use transform="matrix(0.05,0,0,0.05,10,0)" xlink:href="#aS"/><use transform="matrix(0.05,0,0,0.05,22.950000000000003,0)" xlink:href="#as"/><use transform="matrix(0.05,0,0,0.05,32.95,0)" xlink:href="#ag"/><use transform="matrix(0.05,0,0,0.05,42.95,0)" xlink:href="#ag"/><use transform="matrix(0.05,0,0,0.05,52.95,0)" xlink:href="#at"/></g></defs></g></svg>